<svg width="262" height="275" viewBox="0 0 262 275" fill="none" xmlns="http://www.w3.org/2000/svg">
<path d="M247.012 83.021C247.2 83.2382 246.115 83.021 261.906 85.8145V84.9026L247.75 82.0803C228.804 60.4711 202.578 52.5829 173.631 53.4224C171.46 46.1855 161.256 12.3316 159.432 7.6421C157.406 2.43158 153.946 0 148.548 0C143.468 0 68.9425 19.9737 64.6004 21.175C56.3649 23.3895 30.9057 29.7 13.9425 34.0711C-2.21012 38.2539 -0.429861 48.5592 0.684613 54.7105C6.9083 89.7368 21.6715 141.422 45.4372 196.191C43.1846 203.119 42.2902 210.417 42.803 217.684C44.8004 244.866 65.8017 264.463 87.4109 270.455L88.9741 275H90.5228C88.6267 269.804 88.757 269.384 88.1491 269.211C65.8162 262.799 46.6241 242.796 44.5688 217.539C43.1215 199.346 51.8057 180.414 64.1517 169.197C67.8425 165.868 75.7307 160.513 78.3504 164.682C66.9452 182.875 58.8833 203.63 56.9873 218.162C57.9827 217.995 59.0048 218.11 59.9383 218.494C60.8718 218.878 61.6795 219.514 62.2701 220.333C62.5886 220.767 62.4583 221.621 61.7346 220.897C61.192 220.395 60.5532 220.007 59.8566 219.758C59.16 219.51 58.4203 219.405 57.682 219.45C57.546 219.466 57.4145 219.508 57.2952 219.575C57.1759 219.642 57.0712 219.733 56.9873 219.841C56.5386 220.463 56.9873 221.389 57.5807 221.896C58.8133 222.825 60.2834 223.387 61.8215 223.517C62.0668 223.537 62.3132 223.497 62.5399 223.401C62.7666 223.305 62.967 223.157 63.1241 222.967C67.8281 217.15 72.0721 210.975 75.8175 204.499C77.4607 210.15 79.9546 215.519 83.2136 220.42L80.2899 225.789C80.2737 225.816 80.263 225.846 80.2582 225.876C80.2535 225.907 80.2549 225.939 80.2623 225.969C80.2696 225.999 80.2829 226.027 80.3013 226.053C80.3197 226.078 80.3429 226.099 80.3695 226.115C80.3961 226.131 80.4256 226.142 80.4564 226.147C80.4872 226.152 80.5186 226.15 80.5488 226.143C80.5791 226.135 80.6075 226.122 80.6327 226.104C80.6578 226.085 80.679 226.062 80.6952 226.036L84.632 220.724C84.685 220.642 84.7131 220.546 84.7131 220.449C84.7131 220.351 84.685 220.256 84.632 220.174C82.357 216.806 80.4179 213.224 78.8425 209.478C77.3204 205.775 76.1901 201.923 75.4701 197.986C70.6504 169.443 102.333 186.059 109.975 226.122C113.652 245.228 108.21 256.517 108.21 257.443C108.216 257.514 108.245 257.58 108.293 257.631C108.341 257.683 108.405 257.717 108.474 257.729C108.544 257.741 108.615 257.729 108.677 257.695C108.74 257.662 108.789 257.609 108.818 257.545C111.936 248.699 112.928 239.244 111.712 229.943C114.057 230.047 116.403 229.798 118.674 229.205C120.889 234.995 121.395 240.22 119.181 246.197C119.133 246.286 119.107 246.386 119.107 246.487C119.107 246.588 119.133 246.687 119.181 246.776L138.908 275H140.718L120.353 246.342C120.631 245.646 120.872 244.936 121.077 244.214C121.077 244.214 158.708 233.634 168.623 230.276C175.006 228.105 201.261 219.667 210.191 216.83C219.541 213.863 223.464 211.2 225.143 206.699C226.821 202.197 224.318 195.901 218.6 181.847C215.575 174.393 199.785 132.217 198.8 129.742C207.485 129.583 219.179 125.255 226.3 120.739L261.848 138.586V137.138L226.286 118.597C220.844 121.753 212.348 127.441 198.554 129.018C189.783 105.672 191.043 109.884 186.266 94.6868C188.264 94.4553 190.275 94.1658 192.258 93.8474L204.228 103.053C204.293 103.106 204.377 103.132 204.461 103.124C204.546 103.116 204.623 103.074 204.677 103.009C204.73 102.944 204.756 102.86 204.748 102.776C204.74 102.692 204.699 102.614 204.633 102.561L192.881 92.6316C192.432 92.2697 192.287 92.6316 185.875 93.1816C178.899 93.8908 163.108 94.7447 157.521 90.5618C154.627 88.3039 155.249 85.4526 157.724 82.6737C167.856 71.7605 197.223 67.7947 213.014 67.2447C213.052 67.254 213.092 67.2544 213.13 67.2459C213.169 67.2375 213.205 67.2205 213.236 67.1961C213.267 67.1717 213.292 67.1406 213.309 67.1052C213.326 67.0697 213.335 67.0308 213.335 66.9914C213.335 66.952 213.326 66.9132 213.309 66.8777C213.292 66.8423 213.267 66.8112 213.236 66.7868C213.205 66.7624 213.169 66.7454 213.13 66.7369C213.092 66.7285 213.052 66.7289 213.014 66.7382C201.534 66.752 190.101 68.2108 178.986 71.0803C177.307 65.5803 175.585 59.9211 173.906 54.3632C227.473 54.6816 243.669 80.8789 247.012 83.021ZM15.0715 38.225C32.8886 33.6224 132.757 7.45395 146.29 4.66053C148.111 4.13327 150.052 4.19917 151.833 4.84868C154.077 5.80395 155.032 7.94605 156.175 11.1592C125.462 17.8461 25.2899 44.2316 4.41882 50.9763C3.78198 45.8237 4.66488 40.9171 15.0715 38.225ZM4.46224 51.2513C18.4294 46.9092 66.0333 34.375 80.2465 30.6553C138.011 15.4289 156.19 11.4197 156.219 11.4053C157.044 13.8803 158.289 17.8171 159.794 22.7092C131.237 28.3539 32.4254 55.1447 6.74909 63.2355C6.01093 59.8776 4.85303 54.2329 4.46224 51.2803V51.2513ZM6.82146 63.496C25.7675 57.7066 133.191 28.4263 159.881 22.9697C161.328 27.7316 163.079 33.3908 164.918 39.4553C142.845 44.1737 34.8859 72.5421 10.7294 79.9816C9.12277 73.5697 7.79119 67.896 6.82146 63.525V63.496ZM78.8425 163.958C75.6149 159.5 67.6254 164.682 63.4136 168.3C59.2633 171.982 55.6528 176.231 52.6886 180.921C50.2715 180.053 48.2451 175.132 46.0741 169.747C42.9452 162.209 40.315 154.473 38.2004 146.589C37.6215 144.057 37.5346 142.103 39.5609 140.409C42.0359 138.296 52.5873 134.909 55.6991 133.911C61.6333 132 68.3202 130.437 74.3846 129.091C76.7873 128.57 79.3491 128.628 80.782 130.162C82.9096 132.391 86.7741 143.709 88.9596 150.078C86.557 152.972 84.2267 155.997 81.9978 159.211C76.8536 155.92 71.3703 153.193 65.6425 151.076C67.0899 148.529 73.1978 137.572 75.1083 134.012C75.1525 133.935 75.1643 133.844 75.1412 133.758C75.1181 133.673 75.0621 133.6 74.9853 133.556C74.9085 133.512 74.8173 133.5 74.7318 133.523C74.6463 133.546 74.5735 133.602 74.5294 133.679C70.5201 139.714 67.2201 145.07 64.1807 150.512C57.0162 147.863 51.1544 146.17 44.4241 144.346C44.3396 144.317 44.2472 144.323 44.1671 144.363C44.0871 144.402 44.0259 144.471 43.9971 144.556C43.9683 144.64 43.9743 144.733 44.0136 144.813C44.053 144.893 44.1225 144.954 44.207 144.983C48.8241 146.807 57.0017 149.484 63.3991 151.901C59.6027 158.709 56.425 165.845 53.9044 173.221C53.8879 173.298 53.8991 173.378 53.9357 173.447C53.9724 173.516 54.0324 173.57 54.105 173.599C54.1776 173.629 54.2582 173.632 54.3327 173.607C54.4072 173.583 54.4708 173.534 54.5123 173.467C59.7951 162.004 64.2096 153.739 64.8899 152.466C70.5735 154.586 76.0769 157.161 81.3465 160.166C80.4781 161.353 79.6386 162.641 78.8425 163.958ZM86.0794 183.888C86.7162 182.368 87.3386 180.849 87.932 179.329C91.8978 179.488 99.7425 180.125 101.885 183.483C104.027 186.841 99.5544 190.3 95.5162 191.617C92.9407 188.414 89.727 185.782 86.0794 183.888ZM96.5583 192.891C102.015 193.904 114.795 196.249 115.736 201.734C116.489 205.874 110.265 208.233 105.778 208.725C103.408 203.077 100.324 197.756 96.6017 192.891H96.5583ZM111.466 229.162C110.733 223.561 109.374 218.061 107.414 212.763C112.624 214.63 124.681 220 122.929 225.109C121.8 228.453 115.36 229.22 111.51 229.162H111.466ZM221.075 205.164C220.12 207.741 217.732 209.912 208.845 212.734C163.89 227.005 166.51 227.034 121.743 239.554C121.852 235.871 120.967 232.226 119.181 229.003C120.165 228.77 121.085 228.32 121.874 227.687C122.663 227.053 123.3 226.252 123.74 225.341C125.824 219.349 112.769 213.762 106.907 211.489C106.314 209.926 106.198 209.709 106.096 209.463C111.061 208.754 117.27 206.12 116.489 201.618C116.384 201.01 116.168 200.426 115.852 199.896C115.852 199.896 206.414 173.105 210.177 172.15C217.008 189.866 222.552 201.286 221.119 205.164H221.075ZM157.102 82.1382C153.324 86.3789 155.264 89.0566 155.249 89.2447C155.699 90.0003 156.295 90.6595 157 91.1842C158.006 91.9835 159.122 92.632 160.315 93.1092C138.185 99.8684 41.6162 127.658 41.2109 127.788C35.8846 129.236 32.3675 130.278 29.632 122.52C35.4215 115.789 54.6859 93.3697 58.5794 90.5908C59.9508 89.566 61.6147 89.008 63.3267 88.9987C69.3044 88.825 99.6702 103.125 104.982 100.578C108.629 98.8118 121.265 78.9539 121.395 78.7658C130.441 64.8276 129.269 65.6237 149.865 68.9816C154.453 69.7342 160.72 70.7474 168.869 72.0355L169.491 74.2789C164.816 76.146 160.112 78.7658 157.145 82.1237L157.102 82.1382ZM29.2122 121.579C26.7372 114.342 20.0504 92.9355 20.4412 89.7368C20.6157 88.591 21.1187 87.5203 21.8894 86.6545C22.6601 85.7888 23.6653 85.1652 24.7833 84.8592C29.5741 83.5132 154.699 49.3118 158.129 49.3118C160.865 49.3118 161.921 50.7592 162.964 53.4079C165.132 59.2348 167.006 65.1668 168.579 71.1816C138.185 66.1737 135.825 65.175 131.541 66.1737C127.937 67.0132 126.331 69.0684 120.396 78.0855C115.953 84.9461 106.893 98.2618 104.475 99.4632C102.391 100.476 101.277 100.129 95.1254 98.2039C87.2517 95.7289 82.953 94.3395 73.7767 90.7066C68.2478 88.5066 62.8636 86.1184 57.8557 89.6645C53.2965 92.9789 32.8162 117.237 29.2122 121.579ZM174.846 72.2382C173.399 72.7013 171.85 73.2368 170.302 73.8592C168.481 66.84 166.278 59.9258 163.702 53.1474C162.529 50.2526 161.227 48.5882 158.071 48.5447C156.32 48.5447 80.9267 68.0263 24.5083 84.0921C23.2422 84.4504 22.1055 85.1646 21.2332 86.1498C20.3609 87.135 19.7896 88.3498 19.5872 89.65C19.0951 93.3697 25.6083 114.255 28.6044 122.346C32.1215 131.841 36.0004 129.959 42.8465 128.136C71.1715 120.754 132.583 102.749 161.632 93.6303C167.885 95.7145 175.368 95.5553 181.895 95.0776C184.312 102.821 186.237 108.755 187.279 111.389C189.204 116.296 206.573 162.597 210.119 171.861C203.244 173.568 199.828 174.668 115.736 199.636C112.624 194.83 102.883 192.529 97.1083 191.834C100.307 190.387 103.404 188.071 103.187 184.597C102.97 181.124 97.557 179.72 95.7912 179.286C93.3491 178.717 90.8576 178.388 88.3517 178.301C91.8191 169.487 94.3514 160.333 95.907 150.989C96.3267 148.341 91.8544 146.647 90.4215 148.239L89.1767 149.687C85.8044 139.7 82.8517 131.58 80.9412 129.539C79.4938 127.904 76.4833 128.222 74.2833 128.555C66.6991 129.742 43.7438 136.067 39.228 139.888C37.6649 141.437 36.782 142.595 37.6938 146.575C39.7752 154.533 42.4011 162.338 45.553 169.936C47.2754 174.147 49.6925 180.299 52.4136 181.283C50.5711 184.194 48.9549 187.243 47.5794 190.401C33.8149 159.022 24.4215 135.401 10.7872 80.4013C33.2359 73.5842 147.216 43.7395 164.99 39.875C166.235 43.8263 172.921 65.6816 174.846 72.2382Z" fill="white"/>
<path d="M96.8189 142.855C95.7478 142.465 93.6057 145.75 93.0702 146.662C93.0556 146.685 93.0467 146.711 93.0441 146.738C93.0414 146.765 93.0452 146.792 93.0551 146.818C93.0649 146.843 93.0806 146.866 93.1008 146.884C93.121 146.902 93.1452 146.915 93.1715 146.923C93.9896 147.108 94.756 147.474 95.4149 147.994C95.4312 148.012 95.4513 148.027 95.4737 148.037C95.4962 148.047 95.5205 148.052 95.5452 148.052C95.5698 148.052 95.5942 148.047 95.6166 148.037C95.6391 148.027 95.6591 148.012 95.6754 147.994C96.1241 147.038 97.8899 143.29 96.8189 142.855ZM18.632 52.4962C15.8433 53.0418 13.1412 53.962 10.5991 55.2317C11.4412 53.9401 12.2002 52.5961 12.8715 51.208C12.8837 51.1761 12.8842 51.1408 12.8729 51.1085C12.8616 51.0762 12.8392 51.049 12.8097 51.0316C12.7802 51.0142 12.7455 51.0079 12.7118 51.0137C12.678 51.0195 12.6474 51.0371 12.6254 51.0633C11.6736 52.4908 10.8178 53.9801 10.0636 55.5212C9.81755 56.0422 14.1162 57.2291 14.6807 57.3159C14.7111 57.3159 14.7407 57.3064 14.7653 57.2886C14.79 57.2708 14.8084 57.2458 14.818 57.217C14.8276 57.1881 14.8279 57.157 14.8189 57.128C14.8098 57.099 14.7918 57.0736 14.7675 57.0554C13.4636 56.4142 12.0888 55.9284 10.6715 55.608C13.2807 54.5075 15.9593 53.5792 18.6899 52.8291C18.9504 52.6699 18.8781 52.4528 18.632 52.4962ZM33.8004 48.5883C32.1874 47.7268 30.5079 46.996 28.7781 46.4028C28.745 46.3945 28.7102 46.3982 28.6796 46.4132C28.649 46.4281 28.6247 46.4533 28.6108 46.4844C28.597 46.5155 28.5946 46.5505 28.604 46.5832C28.6134 46.6159 28.634 46.6443 28.6623 46.6633C30.0594 47.4252 31.5107 48.0831 33.0044 48.6317C30.24 48.899 27.5319 49.5821 24.9715 50.658C24.9433 50.677 24.9226 50.7054 24.9132 50.7381C24.9038 50.7708 24.9062 50.8058 24.92 50.8369C24.9339 50.868 24.9582 50.8932 24.9888 50.9082C25.0194 50.9231 25.0543 50.9268 25.0873 50.9186C26.9978 50.3107 29.7623 49.7751 33.3518 49.037C32.4199 50.1664 31.5915 51.3775 30.8768 52.6554C30.8675 52.6873 30.8683 52.7212 30.8793 52.7525C30.8902 52.7838 30.9107 52.811 30.9378 52.8301C30.9649 52.8492 30.9973 52.8594 31.0305 52.8592C31.0636 52.8591 31.0959 52.8485 31.1228 52.8291C32.159 51.6026 33.0751 50.2794 33.8583 48.8778C33.8799 48.8576 33.896 48.8322 33.905 48.8041C33.914 48.7759 33.9157 48.7459 33.9099 48.7169C33.9041 48.6879 33.891 48.6609 33.8719 48.6384C33.8527 48.6159 33.8281 48.5987 33.8004 48.5883ZM46.7254 46.6778C46.68 47.5264 46.3301 48.3302 45.7399 48.9417C45.1497 49.5532 44.3588 49.9313 43.5123 50.0067C42.699 50.0707 41.8878 49.8603 41.2083 49.409C40.5287 48.9577 40.0201 48.2916 39.7636 47.5173C39.5498 46.7197 39.6246 45.8722 39.9749 45.1245C40.3252 44.3767 40.9284 43.7768 41.678 43.4305C42.4277 43.0843 43.2755 43.014 44.0719 43.2321C44.8683 43.4502 45.5621 43.9426 46.0307 44.6225C45.3303 44.5888 44.6284 44.613 43.932 44.6949C43.8936 44.6949 43.8568 44.7101 43.8297 44.7373C43.8025 44.7644 43.7873 44.8012 43.7873 44.8396C43.7873 44.878 43.8025 44.9148 43.8297 44.942C43.8568 44.9691 43.8936 44.9844 43.932 44.9844C44.7354 45.0707 45.5457 45.0707 46.3491 44.9844C46.3809 44.977 46.4099 44.961 46.4329 44.9379C46.456 44.9149 46.4721 44.8858 46.4794 44.8541C46.66 44.0176 46.7039 43.1573 46.6097 42.3067C46.6097 42.2683 46.5944 42.2315 46.5673 42.2044C46.5401 42.1772 46.5033 42.162 46.4649 42.162C46.4265 42.162 46.3897 42.1772 46.3626 42.2044C46.3354 42.2315 46.3202 42.2683 46.3202 42.3067C46.1744 42.9766 46.1208 43.6632 46.161 44.3475C43.5123 40.5265 37.9978 43.6817 39.2136 47.7922C40.5307 52.4094 47.5504 51.2225 47.0294 46.7791C47.0428 46.7388 47.0397 46.6948 47.0207 46.6568C47.0017 46.6188 46.9684 46.5899 46.9281 46.5765C46.8878 46.563 46.8438 46.5662 46.8058 46.5851C46.7678 46.6042 46.7389 46.6375 46.7254 46.6778ZM13.2912 41.9738C12.9191 41.9738 12.5553 42.0842 12.2459 42.2909C11.9365 42.4977 11.6953 42.7915 11.5529 43.1354C11.4105 43.4792 11.3732 43.8575 11.4458 44.2225C11.5184 44.5875 11.6976 44.9227 11.9608 45.1859C12.2239 45.449 12.5592 45.6282 12.9242 45.7008C13.2891 45.7734 13.6675 45.7362 14.0113 45.5938C14.3551 45.4513 14.649 45.2102 14.8557 44.9008C15.0625 44.5913 15.1728 44.2275 15.1728 43.8554C15.1728 43.3564 14.9746 42.8778 14.6217 42.5249C14.2688 42.1721 13.7903 41.9738 13.2912 41.9738ZM19.9347 39.9765C19.5625 39.9765 19.1987 40.0868 18.8893 40.2936C18.5799 40.5003 18.3387 40.7942 18.1963 41.138C18.0539 41.4818 18.0166 41.8601 18.0892 42.2251C18.1618 42.5901 18.341 42.9254 18.6042 43.1885C18.8673 43.4517 19.2026 43.6309 19.5676 43.7035C19.9326 43.7761 20.3109 43.7388 20.6547 43.5964C20.9985 43.454 21.2924 43.2128 21.4991 42.9034C21.7059 42.594 21.8162 42.2302 21.8162 41.858C21.8162 41.359 21.618 40.8804 21.2651 40.5276C20.9123 40.1747 20.4337 39.9765 19.9347 39.9765ZM26.5925 38.0225C26.2204 38.0225 25.8566 38.1329 25.5472 38.3396C25.2378 38.5464 24.9966 38.8402 24.8542 39.184C24.7118 39.5279 24.6745 39.9062 24.7471 40.2712C24.8197 40.6362 24.9989 40.9714 25.2621 41.2346C25.5252 41.4977 25.8605 41.6769 26.2255 41.7495C26.5905 41.8221 26.9688 41.7849 27.3126 41.6424C27.6564 41.5 27.9503 41.2589 28.157 40.9494C28.3638 40.64 28.4741 40.2762 28.4741 39.9041C28.4741 39.4051 28.2759 38.9265 27.923 38.5736C27.5702 38.2207 27.0916 38.0225 26.5925 38.0225ZM151.602 15.2988C150.473 15.2988 66.3083 36.6909 59.2886 38.5725C54.9465 39.7449 53.9478 39.8317 53.0794 41.2791C52.7631 41.7905 52.59 42.3775 52.5781 42.9787C52.5662 43.5799 52.716 44.1733 53.0118 44.6968C53.3076 45.2204 53.7385 45.6549 54.2596 45.955C54.7807 46.2551 55.3728 46.4097 55.9741 46.4028C57.1119 46.257 58.2289 45.9802 59.3031 45.5778C77.786 40.5265 150.661 22.4199 151.558 22.2462C152.139 22.1774 152.699 21.9841 153.199 21.6794C153.698 21.3746 154.126 20.9657 154.453 20.4804C154.763 19.9675 154.933 19.3821 154.945 18.783C154.957 18.1839 154.811 17.5921 154.522 17.0671C154.233 16.5421 153.811 16.1023 153.299 15.7919C152.786 15.4816 152.201 15.3115 151.602 15.2988ZM154.193 20.2633C153.881 20.7066 153.479 21.078 153.012 21.3527C152.545 21.6273 152.025 21.7987 151.486 21.8554C46.1175 48.2409 56.9728 46.0988 55.9597 46.0988C55.4224 46.0902 54.8969 45.9406 54.4356 45.6651C53.9743 45.3895 53.5934 44.9977 53.3311 44.5288C53.0688 44.0598 52.9342 43.5302 52.9408 42.993C52.9475 42.4557 53.0951 41.9296 53.3689 41.4673C54.136 40.2225 54.8162 40.1646 59.3465 38.9488C67.4518 36.7633 150.531 15.6896 151.558 15.6896C152.094 15.6878 152.621 15.8276 153.085 16.095C153.55 16.3624 153.935 16.7478 154.203 17.2121C154.47 17.6764 154.61 18.2032 154.608 18.7391C154.606 19.2749 154.463 19.8007 154.193 20.2633Z" fill="white"/>
<path d="M60.982 43.4208C60.5974 43.1231 60.1737 42.8796 59.7228 42.6972C59.914 42.2942 59.9429 41.8332 59.8035 41.4095C59.664 40.9859 59.3669 40.6321 58.9738 40.4215C58.5806 40.2109 58.1215 40.1596 57.6916 40.2783C57.2616 40.397 56.8938 40.6765 56.6644 41.0589C56.4349 41.4414 56.3614 41.8975 56.459 42.3327C56.5566 42.7678 56.8179 43.1488 57.1887 43.3966C57.5595 43.6444 58.0115 43.7401 58.4509 43.6637C58.8904 43.5874 59.2836 43.345 59.5491 42.9866C59.9568 43.261 60.3937 43.4891 60.8518 43.6669C60.8826 43.6734 60.9146 43.6698 60.9431 43.6564C60.9717 43.6431 60.9951 43.6209 61.0098 43.593C61.0245 43.5652 61.0298 43.5334 61.0248 43.5023C61.0198 43.4712 61.0048 43.4426 60.982 43.4208ZM58.0873 43.4208C57.798 43.4382 57.5101 43.3684 57.2609 43.2203C57.0118 43.0721 56.8128 42.8527 56.6898 42.5902C56.5668 42.3277 56.5255 42.0344 56.5711 41.7481C56.6168 41.4619 56.7473 41.196 56.9459 40.9848C57.1444 40.7736 57.4017 40.6268 57.6846 40.5636C57.9675 40.5003 58.2628 40.5235 58.5324 40.63C58.802 40.7365 59.0333 40.9215 59.1965 41.1611C59.3598 41.4006 59.4473 41.6836 59.4478 41.9735C59.4493 42.3358 59.3148 42.6855 59.0709 42.9535C58.8271 43.2215 58.4916 43.3882 58.1307 43.4208H58.0873ZM149.445 18.6419C149.141 16.6301 148.432 16.7893 148.157 17.8893C148.09 18.1361 148.041 18.3877 148.012 18.6419C147.535 18.6419 146.464 18.5116 146.232 18.9458C146 19.3801 146.478 19.6116 146.84 19.7708C147.086 19.8763 147.344 19.954 147.607 20.0024C147.274 20.4511 146.854 21.3051 147.289 21.5801C147.723 21.8551 148.533 21.0011 148.895 20.6103C149.271 20.9287 150.01 21.4643 150.429 21.2037C150.849 20.9432 150.183 20.1616 149.807 19.7564C150.299 19.6551 151.037 19.4235 150.922 18.9458C150.806 18.4682 149.894 18.5985 149.445 18.6419ZM149.604 19.6551C149.518 19.6551 149.489 19.7274 149.604 19.8143C149.72 19.9011 150.545 20.8129 150.328 21.0156C150.111 21.2182 149.3 20.5958 148.997 20.3787C148.975 20.3644 148.95 20.3568 148.924 20.3568C148.898 20.3568 148.873 20.3644 148.852 20.3787C148.374 20.8419 147.636 21.4787 147.404 21.3051C147.173 21.1314 147.81 20.1037 147.868 19.9445C147.881 19.931 147.888 19.9128 147.888 19.8939C147.888 19.8749 147.881 19.8567 147.868 19.8432C147.607 19.7419 146.507 19.409 146.579 19.0472C146.652 18.6853 148.027 18.8156 148.186 18.8301C148.345 18.8445 148.302 18.7577 148.316 18.6419C148.591 17.1945 148.837 17.2958 148.953 17.4985C149.13 17.8979 149.28 18.309 149.402 18.7287V18.8011C149.402 18.8011 150.646 18.8011 150.733 19.0472C150.82 19.2932 149.952 19.5827 149.604 19.6551ZM93.7215 142.725C91.0005 133.52 88.9741 129.612 89.9439 126.471C91.8833 120.841 111.654 116.035 118.24 114.516C120.483 113.995 125.564 112.808 127.72 113.271C129.877 113.734 131.179 114.993 136.144 129.916C138.238 136.038 139.953 142.283 141.282 148.616C141.514 149.361 141.579 150.148 141.471 150.921C141.364 151.695 141.087 152.434 140.66 153.088C138.373 156.127 121.974 160.614 118.298 161.627C100.423 166.534 102.579 165.796 97.2386 152.408C97.2386 152.381 97.2279 152.355 97.2089 152.336C97.1899 152.317 97.1642 152.306 97.1373 152.306C97.1104 152.306 97.0846 152.317 97.0657 152.336C97.0467 152.355 97.036 152.381 97.036 152.408C99.3807 159.645 100.235 163.798 104.085 164.783C106.979 165.55 115.36 162.887 118.428 162.018C137.722 156.475 139.82 154.926 141.05 153.334C141.514 152.629 141.818 151.83 141.94 150.995C142.063 150.16 142.001 149.309 141.76 148.5C140.437 142.128 138.721 135.844 136.621 129.684C131.628 114.776 130.354 113.285 127.821 112.735C125.621 112.258 121.193 113.285 118.139 113.995C111.553 115.543 91.6518 120.334 89.5386 126.268C88.3662 129.785 91.9847 138.933 93.5044 142.725C93.5623 142.927 93.7649 142.855 93.7215 142.725ZM154.337 149.831C158.491 149.585 177.003 144.346 186.179 140.337C189.277 138.976 190.825 137.601 190.087 134.316C187.06 123.653 183.337 113.199 178.943 103.023C178.392 101.343 177.257 99.9155 175.744 98.9998C172.415 97.4077 156.277 102.662 150.907 104.398C147.506 105.498 141.687 107.366 139.328 109.71C137.244 111.708 137.533 114.255 138.315 117.034C147.39 149.079 149.257 150.121 154.337 149.831ZM139.516 110C141.875 107.727 147.679 105.889 150.994 104.818C155.596 103.371 172.444 97.9722 175.599 99.434C177.012 100.317 178.068 101.67 178.581 103.255C182.958 113.396 186.643 123.821 189.61 134.46C190.203 137.616 188.958 138.585 186.02 139.873C178.248 143.275 158.766 149.093 154.381 149.383C149.344 149.701 147.622 147.935 138.633 116.991C137.823 114.342 137.533 111.852 139.516 110ZM40.7768 59.6024C40.7565 59.5113 40.718 59.4252 40.6637 59.3492C40.6093 59.2733 40.5402 59.2091 40.4605 59.1604C40.3808 59.1118 40.2921 59.0797 40.1997 59.0661C40.1073 59.0526 40.0132 59.0577 39.9228 59.0814L14.261 65.8695C14.069 65.9194 13.9048 66.0435 13.8044 66.2145C13.7039 66.3855 13.6755 66.5894 13.7254 66.7814C13.7754 66.9733 13.8995 67.1376 14.0705 67.238C14.2415 67.3384 14.4454 67.3668 14.6373 67.3169L40.2847 60.5287C40.3803 60.5043 40.4698 60.4602 40.5475 60.3991C40.6251 60.3381 40.6891 60.2615 40.7354 60.1743C40.7817 60.0871 40.8093 59.9912 40.8165 59.8927C40.8236 59.7943 40.8101 59.6954 40.7768 59.6024ZM35.2044 66.8393C35.1825 66.7494 35.1428 66.6649 35.0878 66.5905C35.0328 66.5162 34.9635 66.4536 34.8839 66.4065C34.8044 66.3593 34.7162 66.3284 34.6246 66.3158C34.533 66.3031 34.4398 66.3089 34.3504 66.3327L15.6794 71.2682C15.5871 71.2931 15.5008 71.3364 15.4256 71.3954C15.3505 71.4545 15.288 71.5282 15.242 71.612C15.1961 71.6958 15.1675 71.7881 15.1581 71.8832C15.1487 71.9783 15.1586 72.0744 15.1873 72.1656C15.209 72.2552 15.2487 72.3394 15.304 72.4132C15.3592 72.4869 15.4289 72.5487 15.5088 72.5947C15.5886 72.6408 15.677 72.6701 15.7685 72.6809C15.8601 72.6917 15.9528 72.6838 16.0412 72.6577L34.7123 67.7222C34.803 67.6972 34.8878 67.6544 34.9618 67.5963C35.0357 67.5382 35.0974 67.4659 35.1432 67.3838C35.189 67.3016 35.218 67.2111 35.2285 67.1177C35.239 67.0242 35.2308 66.9296 35.2044 66.8393ZM51.4873 56.4472C51.538 56.6271 51.6576 56.7797 51.8203 56.8719C51.9829 56.964 52.1753 56.9882 52.3557 56.9393L78.0031 50.1511C78.0934 50.1273 78.1781 50.086 78.2524 50.0295C78.3267 49.973 78.3892 49.9025 78.4362 49.8218C78.4833 49.7412 78.514 49.6521 78.5266 49.5596C78.5392 49.4671 78.5334 49.373 78.5097 49.2827C78.4859 49.1924 78.4446 49.1077 78.3881 49.0334C78.3316 48.959 78.261 48.8966 78.1804 48.8495C78.0997 48.8025 78.0106 48.7718 77.9181 48.7592C77.8256 48.7466 77.7315 48.7523 77.6412 48.7761L51.9939 55.6222C51.8206 55.6699 51.672 55.7816 51.5779 55.9348C51.4839 56.0879 51.4515 56.2711 51.4873 56.4472ZM72.9373 56.5774C72.8864 56.3969 72.7674 56.2432 72.6054 56.1487C72.4434 56.0542 72.2511 56.0263 72.0689 56.0708L53.3978 61.0208C53.3061 61.0441 53.22 61.0858 53.1449 61.1434C53.0699 61.2011 53.0074 61.2735 52.9613 61.3561C52.9152 61.4388 52.8865 61.53 52.877 61.6242C52.8674 61.7184 52.8772 61.8135 52.9057 61.9037C52.9534 62.0831 53.0696 62.2367 53.2293 62.3314C53.3889 62.4261 53.5793 62.4544 53.7597 62.4103L72.4452 57.4603C72.6262 57.4065 72.779 57.284 72.8709 57.119C72.9629 56.9541 72.9867 56.7597 72.9373 56.5774ZM89.2202 46.3156C89.2421 46.4054 89.2818 46.49 89.3368 46.5643C89.3918 46.6386 89.4611 46.7012 89.5407 46.7484C89.6202 46.7956 89.7084 46.8264 89.8 46.8391C89.8916 46.8517 89.9848 46.846 90.0741 46.8222L115.722 40.034C115.814 40.0089 115.901 39.9657 115.976 39.9069C116.052 39.848 116.115 39.7747 116.162 39.6913C116.21 39.6078 116.24 39.5157 116.251 39.4205C116.262 39.3253 116.254 39.2288 116.228 39.1366C116.174 38.9588 116.054 38.8085 115.892 38.7169C115.731 38.6253 115.54 38.5994 115.36 38.6445L89.7123 45.3603C89.6118 45.3818 89.5173 45.4254 89.4357 45.4879C89.354 45.5503 89.2872 45.6301 89.2402 45.7215C89.1931 45.8129 89.1669 45.9136 89.1634 46.0163C89.16 46.119 89.1794 46.2212 89.2202 46.3156ZM110.685 46.3156C110.634 46.1357 110.514 45.983 110.352 45.8909C110.189 45.7987 109.997 45.7745 109.816 45.8235L91.1452 50.759C90.9533 50.8089 90.789 50.933 90.6886 51.104C90.5882 51.275 90.5598 51.4789 90.6097 51.6708C90.6596 51.8628 90.7837 52.027 90.9547 52.1275C91.1257 52.2279 91.3296 52.2563 91.5215 52.2064L110.193 47.2564C110.291 47.2344 110.384 47.1911 110.464 47.1296C110.544 47.0681 110.61 46.9898 110.657 46.9003C110.704 46.8107 110.731 46.712 110.735 46.611C110.74 46.51 110.723 46.4092 110.685 46.3156ZM126.939 35.9958C126.962 36.0844 127.003 36.1674 127.059 36.2401C127.114 36.3128 127.184 36.3738 127.263 36.4195C127.343 36.4653 127.43 36.4949 127.521 36.5066C127.612 36.5184 127.704 36.512 127.793 36.4879L153.454 29.6998C153.545 29.6748 153.63 29.632 153.704 29.5739C153.778 29.5158 153.84 29.4436 153.885 29.3614C153.931 29.2792 153.96 29.1888 153.971 29.0953C153.981 29.0018 153.973 28.9072 153.947 28.8169C153.923 28.7265 153.882 28.6416 153.825 28.5672C153.769 28.4928 153.698 28.4302 153.618 28.3831C153.537 28.3361 153.448 28.3054 153.355 28.2929C153.263 28.2804 153.168 28.2863 153.078 28.3103L127.431 35.0985C127.246 35.1522 127.091 35.277 126.999 35.4452C126.907 35.6135 126.885 35.8116 126.939 35.9958ZM148.316 36.0682C148.294 35.9784 148.255 35.8938 148.2 35.8195C148.145 35.7452 148.075 35.6826 147.996 35.6354C147.916 35.5882 147.828 35.5574 147.736 35.5447C147.645 35.5321 147.552 35.5378 147.462 35.5616L128.849 40.5261C128.759 40.5499 128.674 40.5912 128.6 40.6477C128.525 40.7042 128.463 40.7748 128.416 40.8554C128.369 40.936 128.338 41.0252 128.326 41.1177C128.313 41.2102 128.319 41.3042 128.343 41.3945C128.366 41.4848 128.408 41.5695 128.464 41.6439C128.521 41.7182 128.591 41.7806 128.672 41.8277C128.752 41.8747 128.842 41.9054 128.934 41.918C129.027 41.9306 129.121 41.9249 129.211 41.9011L147.882 36.9656C147.97 36.9363 148.052 36.8897 148.122 36.8284C148.192 36.7671 148.248 36.6924 148.289 36.6087C148.329 36.525 148.353 36.4341 148.357 36.3412C148.362 36.2484 148.348 36.1556 148.316 36.0682ZM142.715 160.658C142.687 160.568 142.641 160.485 142.581 160.413C142.521 160.341 142.447 160.282 142.363 160.238C142.28 160.195 142.188 160.169 142.095 160.162C142.001 160.154 141.907 160.165 141.818 160.195L108.629 170.529C108.54 170.556 108.457 170.601 108.385 170.661C108.313 170.72 108.254 170.794 108.21 170.876C108.166 170.959 108.139 171.049 108.13 171.143C108.122 171.236 108.131 171.33 108.159 171.419C108.187 171.508 108.231 171.591 108.291 171.663C108.351 171.735 108.424 171.795 108.507 171.838C108.589 171.882 108.68 171.909 108.773 171.918C108.866 171.927 108.96 171.917 109.049 171.889L142.237 161.555C142.419 161.498 142.571 161.372 142.66 161.204C142.75 161.036 142.769 160.84 142.715 160.658ZM135.29 170.529C135.262 170.439 135.216 170.356 135.156 170.284C135.096 170.212 135.022 170.153 134.938 170.11C134.855 170.066 134.763 170.04 134.67 170.033C134.576 170.025 134.482 170.036 134.393 170.066L110.525 177.491C110.436 177.519 110.352 177.564 110.281 177.624C110.209 177.685 110.149 177.759 110.106 177.842C110.063 177.926 110.037 178.017 110.03 178.111C110.022 178.204 110.033 178.299 110.062 178.388C110.119 178.57 110.245 178.721 110.413 178.811C110.581 178.9 110.777 178.92 110.96 178.866L134.812 171.426C134.994 171.369 135.146 171.243 135.235 171.075C135.325 170.907 135.344 170.711 135.29 170.529ZM145.494 174.089L112.306 184.438C112.216 184.466 112.134 184.512 112.062 184.573C111.99 184.633 111.931 184.707 111.888 184.791C111.845 184.874 111.819 184.965 111.811 185.058C111.803 185.152 111.814 185.246 111.843 185.335C111.871 185.425 111.917 185.508 111.977 185.579C112.038 185.651 112.112 185.71 112.195 185.753C112.279 185.796 112.37 185.822 112.463 185.83C112.557 185.838 112.651 185.827 112.74 185.798L145.928 175.464C146.018 175.436 146.101 175.391 146.173 175.33C146.245 175.27 146.304 175.196 146.347 175.112C146.39 175.029 146.416 174.938 146.424 174.844C146.432 174.75 146.42 174.656 146.391 174.567C146.334 174.385 146.208 174.233 146.041 174.144C145.873 174.055 145.676 174.035 145.494 174.089ZM189.827 145.909L156.639 156.316C156.549 156.343 156.466 156.388 156.394 156.448C156.322 156.507 156.263 156.581 156.219 156.663C156.175 156.746 156.148 156.836 156.14 156.929C156.131 157.023 156.141 157.116 156.168 157.206C156.196 157.295 156.241 157.378 156.3 157.45C156.36 157.522 156.433 157.582 156.516 157.625C156.599 157.669 156.689 157.696 156.782 157.705C156.875 157.713 156.969 157.704 157.058 157.676L190.29 147.284C190.482 147.228 190.644 147.099 190.74 146.924C190.837 146.749 190.859 146.542 190.804 146.35C190.748 146.159 190.618 145.997 190.443 145.9C190.268 145.804 190.062 145.781 189.87 145.837L189.827 145.909ZM183.227 156.229C183.2 156.14 183.156 156.057 183.097 155.985C183.038 155.913 182.966 155.854 182.883 155.81C182.801 155.767 182.711 155.741 182.618 155.733C182.525 155.726 182.432 155.737 182.344 155.766L158.448 163.191C158.266 163.247 158.114 163.373 158.025 163.541C157.936 163.709 157.916 163.906 157.97 164.088C157.998 164.178 158.044 164.261 158.104 164.333C158.164 164.405 158.239 164.464 158.322 164.507C158.406 164.55 158.497 164.576 158.59 164.584C158.684 164.591 158.778 164.58 158.868 164.551L182.735 157.126C182.827 157.101 182.913 157.058 182.988 156.999C183.064 156.94 183.126 156.866 183.172 156.782C183.218 156.699 183.247 156.606 183.256 156.511C183.265 156.416 183.255 156.32 183.227 156.229ZM159.895 171.021C159.922 171.11 159.966 171.194 160.024 171.266C160.083 171.338 160.156 171.398 160.238 171.443C160.32 171.487 160.41 171.515 160.502 171.524C160.595 171.534 160.689 171.525 160.778 171.498L193.966 161.164C194.067 161.146 194.162 161.107 194.246 161.049C194.33 160.991 194.401 160.916 194.455 160.829C194.508 160.742 194.542 160.644 194.554 160.543C194.567 160.442 194.558 160.339 194.529 160.241C194.499 160.143 194.449 160.053 194.382 159.976C194.314 159.899 194.232 159.838 194.139 159.795C194.046 159.752 193.945 159.73 193.843 159.729C193.741 159.728 193.64 159.748 193.547 159.789L160.358 170.123C160.269 170.151 160.185 170.197 160.113 170.257C160.041 170.318 159.982 170.392 159.939 170.475C159.896 170.559 159.87 170.65 159.862 170.744C159.855 170.837 159.866 170.932 159.895 171.021ZM119.369 207.567L135.579 202.646C135.742 202.575 135.873 202.446 135.947 202.285C136.021 202.124 136.033 201.941 135.982 201.772C135.93 201.602 135.817 201.457 135.666 201.365C135.514 201.272 135.334 201.239 135.16 201.271L118.949 206.192C118.849 206.21 118.753 206.25 118.669 206.307C118.585 206.365 118.514 206.44 118.461 206.527C118.408 206.615 118.374 206.712 118.361 206.813C118.348 206.915 118.357 207.018 118.387 207.115C118.417 207.213 118.467 207.303 118.534 207.38C118.601 207.457 118.684 207.519 118.776 207.561C118.869 207.604 118.97 207.627 119.072 207.628C119.174 207.628 119.275 207.608 119.369 207.567ZM119.774 212.604C119.831 212.785 119.957 212.937 120.125 213.027C120.293 213.116 120.489 213.136 120.672 213.081L142.527 206.438C142.686 206.366 142.813 206.239 142.886 206.08C142.959 205.921 142.972 205.742 142.922 205.574C142.873 205.407 142.765 205.263 142.618 205.169C142.47 205.075 142.294 205.037 142.122 205.063L120.208 211.706C120.035 211.772 119.893 211.901 119.812 212.068C119.731 212.235 119.718 212.427 119.774 212.604ZM125.158 217.641L138.098 213.704C138.188 213.679 138.273 213.636 138.346 213.578C138.42 213.519 138.481 213.447 138.525 213.364C138.57 213.282 138.597 213.191 138.606 213.098C138.615 213.004 138.604 212.91 138.575 212.821C138.549 212.731 138.505 212.648 138.446 212.576C138.387 212.503 138.315 212.443 138.233 212.399C138.151 212.355 138.061 212.327 137.968 212.317C137.876 212.308 137.782 212.317 137.693 212.343L124.666 216.266C124.571 216.293 124.483 216.339 124.405 216.401C124.328 216.463 124.264 216.539 124.216 216.626C124.168 216.713 124.138 216.808 124.127 216.906C124.116 217.005 124.125 217.104 124.152 217.199C124.18 217.294 124.226 217.383 124.288 217.46C124.35 217.537 124.426 217.602 124.513 217.649C124.599 217.697 124.695 217.727 124.793 217.738C124.891 217.749 124.991 217.741 125.086 217.713L125.158 217.641ZM126.722 222.62C126.778 222.801 126.904 222.953 127.072 223.042C127.24 223.132 127.437 223.152 127.619 223.097L146.145 217.481C146.308 217.41 146.439 217.282 146.513 217.121C146.587 216.96 146.599 216.777 146.547 216.607C146.496 216.437 146.383 216.293 146.232 216.2C146.08 216.108 145.9 216.075 145.725 216.106L127.199 221.722C127.018 221.779 126.866 221.905 126.776 222.073C126.687 222.241 126.667 222.437 126.722 222.62ZM140.761 224.516L125.318 229.191C125.223 229.218 125.134 229.264 125.057 229.326C124.979 229.388 124.915 229.464 124.867 229.551C124.82 229.638 124.789 229.733 124.779 229.831C124.768 229.93 124.776 230.029 124.804 230.124C124.831 230.219 124.877 230.308 124.939 230.385C125.001 230.462 125.077 230.527 125.164 230.574C125.251 230.622 125.346 230.652 125.444 230.663C125.543 230.674 125.642 230.666 125.737 230.638L141.181 225.949C141.361 225.893 141.512 225.768 141.6 225.601C141.688 225.434 141.707 225.239 141.651 225.058C141.595 224.878 141.47 224.727 141.303 224.639C141.137 224.551 140.941 224.532 140.761 224.588V224.516ZM148.707 199.027L162.066 195.235C162.258 195.184 162.422 195.058 162.521 194.885C162.62 194.713 162.646 194.508 162.595 194.316C162.543 194.124 162.417 193.961 162.244 193.862C162.072 193.763 161.867 193.736 161.675 193.788L148.316 197.652C148.224 197.676 148.138 197.718 148.062 197.775C147.987 197.832 147.923 197.904 147.876 197.987C147.829 198.069 147.799 198.16 147.787 198.254C147.776 198.349 147.783 198.444 147.81 198.535C147.867 198.717 147.992 198.87 148.159 198.962C148.327 199.054 148.523 199.077 148.707 199.027ZM149.547 204.079C149.572 204.169 149.614 204.254 149.672 204.328C149.73 204.402 149.803 204.464 149.885 204.51C149.967 204.555 150.058 204.584 150.151 204.595C150.244 204.605 150.339 204.597 150.429 204.571L165.902 200.229C166.094 200.177 166.257 200.051 166.356 199.879C166.455 199.706 166.482 199.502 166.43 199.31C166.378 199.118 166.252 198.954 166.08 198.855C165.908 198.756 165.703 198.73 165.511 198.781L150.039 203.124C149.938 203.145 149.844 203.189 149.762 203.251C149.68 203.313 149.614 203.393 149.566 203.485C149.519 203.576 149.493 203.677 149.49 203.779C149.486 203.882 149.506 203.984 149.547 204.079ZM165.453 205.526C165.396 205.344 165.271 205.191 165.104 205.099C164.936 205.008 164.74 204.984 164.556 205.034L151.761 208.667C151.666 208.693 151.577 208.737 151.499 208.797C151.421 208.857 151.356 208.932 151.306 209.017C151.207 209.189 151.181 209.394 151.233 209.586C151.285 209.778 151.41 209.941 151.583 210.041C151.755 210.14 151.96 210.166 152.152 210.114L164.961 206.481C165.058 206.454 165.148 206.406 165.226 206.342C165.303 206.279 165.367 206.199 165.413 206.11C165.459 206.021 165.487 205.923 165.493 205.822C165.5 205.722 165.487 205.621 165.453 205.526ZM152.991 215.093C153.016 215.184 153.059 215.269 153.117 215.343C153.175 215.417 153.247 215.478 153.33 215.524C153.412 215.57 153.502 215.599 153.596 215.609C153.689 215.62 153.784 215.612 153.874 215.585L168.999 211.243C169.091 211.22 169.177 211.178 169.252 211.121C169.327 211.063 169.39 210.991 169.436 210.908C169.482 210.825 169.51 210.734 169.52 210.64C169.53 210.546 169.52 210.451 169.491 210.36C169.467 210.266 169.423 210.178 169.363 210.102C169.303 210.026 169.228 209.963 169.142 209.916C169.057 209.87 168.963 209.842 168.866 209.834C168.769 209.826 168.671 209.837 168.579 209.868L153.454 214.21C153.279 214.27 153.133 214.395 153.047 214.559C152.96 214.724 152.941 214.915 152.991 215.093ZM165.685 216.758L155.235 219.725C155.043 219.777 154.879 219.903 154.78 220.075C154.681 220.247 154.655 220.452 154.706 220.644C154.758 220.836 154.884 220.999 155.057 221.098C155.229 221.197 155.434 221.224 155.625 221.172L166.075 218.205C166.267 218.153 166.431 218.027 166.53 217.855C166.629 217.683 166.656 217.478 166.604 217.286C166.552 217.094 166.426 216.931 166.254 216.832C166.081 216.732 165.877 216.706 165.685 216.758ZM96.3991 85.4958C97.1418 86.2343 98.0551 86.7782 99.0581 87.0794C100.061 87.3806 101.123 87.4298 102.15 87.2226C103.176 87.0154 104.136 86.5581 104.944 85.8915C105.751 85.2248 106.382 84.3692 106.78 83.4005C107.178 82.4318 107.331 81.3798 107.226 80.3379C107.12 79.2959 106.759 78.2961 106.175 77.4269C105.59 76.5578 104.801 75.8462 103.876 75.3551C102.951 74.864 101.919 74.6087 100.872 74.6116C99.6057 74.6011 98.3656 74.9697 97.3112 75.6701C96.2567 76.3705 95.4361 77.3706 94.9549 78.5415C94.4738 79.7123 94.3542 81.0005 94.6116 82.2399C94.869 83.4793 95.4916 84.6133 96.3991 85.4958ZM97.0215 77.1011C97.6655 76.4647 98.4562 75.9967 99.3239 75.7383C100.192 75.48 101.11 75.4392 101.997 75.6197C102.884 75.8001 103.713 76.1962 104.411 76.7731C105.109 77.3499 105.654 78.0896 105.998 78.927C106.342 79.7644 106.475 80.6736 106.385 81.5744C106.294 82.4753 105.983 83.34 105.479 84.0922C104.976 84.8444 104.294 85.461 103.496 85.8876C102.697 86.3141 101.806 86.5375 100.9 86.538C99.8068 86.5385 98.7376 86.2138 97.8289 85.6052C96.9202 84.9966 96.213 84.1315 95.7972 83.12C95.3814 82.1084 95.2758 80.9961 95.4938 79.9243C95.7118 78.8526 96.2436 77.8699 97.0215 77.1011Z" fill="#2789FF"/>
<path d="M125.766 116.064C121.878 122.519 118.444 129.236 115.49 136.168C109.4 132.979 103.116 130.175 96.6741 127.774C96.5948 127.75 96.51 127.755 96.4336 127.786C96.3572 127.818 96.294 127.875 96.2544 127.947C96.2188 128.028 96.2154 128.12 96.245 128.203C96.2746 128.287 96.3349 128.355 96.4136 128.396C103.853 132.087 114.882 137.616 114.882 137.616C111.969 144.44 109.47 151.434 107.399 158.559C107.386 158.608 107.384 158.66 107.394 158.71C107.403 158.76 107.425 158.807 107.455 158.847C107.486 158.888 107.526 158.921 107.571 158.943C107.617 158.966 107.667 158.978 107.718 158.979C108.268 158.979 107.631 158.979 116.286 138.354C120.744 140.699 127.865 144.722 135.854 149.542C135.929 149.592 136.021 149.61 136.109 149.592C136.197 149.575 136.275 149.523 136.325 149.448C136.375 149.373 136.393 149.281 136.375 149.193C136.358 149.105 136.306 149.027 136.231 148.977C130.093 144.48 123.63 140.445 116.894 136.906C119.441 130.943 122.539 124.227 126.36 116.383C126.402 116.304 126.411 116.212 126.385 116.126C126.36 116.041 126.301 115.969 126.222 115.927C126.143 115.885 126.051 115.875 125.966 115.901C125.88 115.927 125.808 115.986 125.766 116.064ZM143.685 114.342C149.474 117.237 153.02 118.814 162.5 123.721C159.42 130.459 156.813 137.404 154.699 144.505C154.672 144.59 154.68 144.681 154.721 144.76C154.761 144.839 154.832 144.898 154.916 144.925C155.001 144.952 155.092 144.944 155.171 144.903C155.25 144.863 155.309 144.792 155.336 144.708C158.347 137.384 157.218 139.512 163.919 124.445C169.708 127.542 176.236 131.262 183.169 135.459C183.244 135.509 183.335 135.527 183.424 135.509C183.512 135.492 183.589 135.44 183.639 135.365C183.689 135.29 183.707 135.199 183.69 135.11C183.672 135.022 183.62 134.944 183.545 134.895C177.5 130.486 171.144 126.519 164.527 123.026C167.595 116.383 170.997 109.638 173.718 104.008C173.748 103.932 173.749 103.849 173.722 103.772C173.694 103.696 173.64 103.632 173.569 103.593C173.498 103.554 173.415 103.542 173.335 103.56C173.256 103.577 173.186 103.624 173.139 103.689C169.469 109.703 166.131 115.911 163.137 122.288C156.939 119.03 150.538 116.172 143.974 113.734C143.894 113.696 143.801 113.691 143.717 113.721C143.633 113.751 143.564 113.813 143.525 113.893C143.487 113.974 143.482 114.066 143.512 114.151C143.542 114.235 143.604 114.304 143.685 114.342ZM175.57 194.324C176.021 193.869 176.328 193.292 176.454 192.664C176.579 192.037 176.518 191.386 176.278 190.793C176.038 190.2 175.628 189.69 175.101 189.327C174.574 188.964 173.952 188.764 173.312 188.751C172.787 188.758 172.271 188.892 171.81 189.143C171.348 189.394 170.955 189.754 170.665 190.192C170.374 190.629 170.194 191.131 170.141 191.654C170.088 192.176 170.164 192.704 170.361 193.191C170.558 193.677 170.871 194.109 171.273 194.447C171.675 194.786 172.153 195.021 172.666 195.132C173.18 195.244 173.713 195.229 174.219 195.088C174.725 194.947 175.189 194.684 175.57 194.324ZM171.011 190.995C171.183 190.628 171.44 190.307 171.762 190.061C172.084 189.815 172.461 189.65 172.86 189.58C173.259 189.511 173.669 189.538 174.055 189.661C174.441 189.784 174.792 189.998 175.078 190.285C175.306 190.513 175.486 190.785 175.606 191.084C175.726 191.383 175.783 191.704 175.775 192.026C175.767 192.349 175.693 192.666 175.559 192.959C175.424 193.252 175.231 193.514 174.991 193.73C174.519 194.162 173.902 194.402 173.262 194.402C172.621 194.402 172.004 194.162 171.532 193.73C171.184 193.389 170.948 192.951 170.855 192.472C170.762 191.994 170.816 191.499 171.011 191.052V190.995ZM181.49 191.95C182.081 192.221 182.741 192.304 183.38 192.187C184.02 192.071 184.608 191.761 185.065 191.299C185.649 190.68 185.975 189.862 185.975 189.012C185.975 188.161 185.649 187.343 185.065 186.725C184.772 186.417 184.419 186.173 184.028 186.006C183.638 185.838 183.217 185.752 182.793 185.752C182.368 185.752 181.947 185.838 181.557 186.006C181.166 186.173 180.813 186.417 180.52 186.725C180.164 187.101 179.901 187.556 179.754 188.053C179.607 188.55 179.58 189.075 179.675 189.584C179.769 190.094 179.983 190.574 180.299 190.985C180.614 191.396 181.022 191.727 181.49 191.95ZM180.506 187.97C180.677 187.602 180.935 187.282 181.257 187.036C181.579 186.79 181.955 186.625 182.354 186.555C182.754 186.486 183.164 186.513 183.55 186.636C183.936 186.759 184.287 186.973 184.573 187.26C184.801 187.488 184.981 187.76 185.101 188.059C185.221 188.358 185.278 188.679 185.27 189.001C185.262 189.324 185.188 189.641 185.053 189.934C184.919 190.227 184.726 190.489 184.486 190.705C184.016 191.136 183.401 191.376 182.764 191.376C182.126 191.376 181.511 191.136 181.041 190.705C180.673 190.365 180.423 189.917 180.326 189.425C180.23 188.933 180.293 188.423 180.506 187.97ZM194.632 188.259C195.084 187.807 195.392 187.232 195.52 186.606C195.647 185.98 195.587 185.331 195.348 184.738C195.109 184.146 194.701 183.637 194.175 183.275C193.649 182.912 193.027 182.713 192.389 182.701C191.861 182.703 191.342 182.834 190.877 183.082C190.412 183.331 190.015 183.69 189.72 184.128C189.426 184.565 189.244 185.069 189.189 185.593C189.134 186.118 189.208 186.648 189.406 187.137C189.603 187.626 189.917 188.059 190.321 188.399C190.725 188.738 191.205 188.974 191.721 189.084C192.237 189.195 192.772 189.178 193.279 189.034C193.787 188.89 194.251 188.624 194.632 188.259ZM190.073 184.945C190.244 184.577 190.502 184.257 190.824 184.011C191.146 183.765 191.522 183.6 191.922 183.53C192.321 183.461 192.731 183.488 193.117 183.611C193.503 183.734 193.854 183.948 194.14 184.235C194.368 184.462 194.547 184.732 194.667 185.03C194.787 185.329 194.844 185.648 194.836 185.969C194.828 186.29 194.754 186.607 194.62 186.898C194.485 187.19 194.292 187.451 194.053 187.666C193.585 188.1 192.97 188.341 192.331 188.341C191.692 188.341 191.077 188.1 190.608 187.666C190.233 187.334 189.972 186.893 189.863 186.404C189.754 185.915 189.802 185.404 190 184.945H190.073ZM200.422 185.9C201.014 186.169 201.674 186.25 202.314 186.131C202.954 186.011 203.541 185.698 203.997 185.234C204.586 184.622 204.916 183.805 204.916 182.954C204.916 182.104 204.586 181.287 203.997 180.675C203.707 180.365 203.358 180.116 202.97 179.944C202.582 179.771 202.164 179.679 201.74 179.672C201.315 179.666 200.894 179.744 200.501 179.904C200.108 180.064 199.751 180.302 199.452 180.602C199.083 180.98 198.811 181.44 198.657 181.945C198.503 182.449 198.472 182.983 198.567 183.502C198.662 184.021 198.88 184.509 199.203 184.926C199.525 185.344 199.943 185.677 200.422 185.9ZM199.452 181.905C199.624 181.541 199.881 181.223 200.202 180.979C200.523 180.734 200.897 180.57 201.294 180.501C201.692 180.431 202.099 180.458 202.484 180.579C202.869 180.7 203.219 180.912 203.504 181.196C203.802 181.519 204.008 181.916 204.099 182.346C204.19 182.776 204.164 183.222 204.023 183.638C203.882 184.054 203.632 184.425 203.299 184.711C202.965 184.997 202.561 185.188 202.128 185.264C201.695 185.339 201.25 185.297 200.839 185.141C200.428 184.986 200.067 184.722 199.793 184.378C199.519 184.035 199.343 183.624 199.283 183.189C199.223 182.753 199.281 182.31 199.452 181.905Z" fill="white"/>
</svg>
