<svg width="333" height="60" viewBox="0 0 333 60" fill="none" xmlns="http://www.w3.org/2000/svg">
<g clip-path="url(#clip0_530_970)">
<path d="M252.012 35.4584C252.012 40.202 250.102 43.8757 246.282 46.4889C242.935 48.7707 238.755 49.9164 233.744 49.9164C231.219 49.9164 228.373 49.3672 225.224 48.2784C222.671 47.3884 220.837 46.5078 219.721 45.6367L223.815 36.32L225.045 36.8408C224.941 37.1911 224.856 37.5509 224.78 37.9202C224.704 38.2894 224.667 38.6303 224.667 38.9238C224.667 39.4919 224.78 40.1357 224.997 40.8553C225.47 42.4649 226.444 43.6863 227.938 44.51C229.3 45.258 230.936 45.6273 232.846 45.6273C235.172 45.6273 237.214 44.8793 238.963 43.3833C240.713 41.8873 241.583 40.0316 241.583 37.8255C241.583 35.3732 240.665 33.508 238.831 32.2203C237.243 31.103 235.219 30.5444 232.77 30.5444C231.654 30.5444 230.359 30.6012 228.884 30.7148C227.409 30.8285 226.595 30.9042 226.444 30.961L226.331 30.7054L240.24 18.9743H227.484C226.794 19.0311 226.179 19.2015 225.659 19.5045C225.139 19.8075 224.733 20.1105 224.449 20.4134C224.165 20.7164 223.91 21.1046 223.683 21.5875L222.643 21.1425L226.397 10.5665C226.643 10.9736 226.993 11.2766 227.437 11.466C227.607 11.5607 227.787 11.627 227.957 11.6459C228.08 11.6743 228.392 11.6838 228.884 11.6838H248.202L249.913 15.5468L239.606 23.8504C243.228 23.8504 246.102 24.6931 248.239 26.3879C250.745 28.3762 252.003 31.406 252.003 35.4774L252.012 35.4584Z" fill="#2A4CDB"/>
<path d="M287.849 36.2821C287.849 40.1546 286.28 43.4117 283.131 46.0344C280.096 48.5624 276.531 49.8217 272.418 49.8217C267.538 49.8217 263.406 48.1363 260.012 44.7657C256.617 41.395 254.925 37.1722 254.925 32.0877C254.925 26.2364 256.768 21.3887 260.447 17.5351C264.267 13.5395 269.278 11.5417 275.481 11.5417C277.911 11.5417 280.389 11.8542 282.904 12.4791L285.325 13.0945L283.415 22.771H282.441C282.441 21.9284 282.327 21.1898 282.11 20.5555C281.902 19.9211 281.533 19.2489 281.032 18.5482C280.379 17.6582 279.566 16.9859 278.592 16.5315C277.618 16.077 276.606 15.8498 275.547 15.8498C274.224 15.8498 272.881 16.1717 271.51 16.825C269.609 17.7434 268.011 19.2962 266.716 21.4833C265.562 23.4338 264.985 25.1759 264.985 26.7193L264.91 29.0674C266.234 27.5241 267.765 26.3784 269.524 25.6399C271.283 24.8919 273.07 24.5226 274.895 24.5226C278.592 24.5226 281.523 25.2896 283.689 26.8329C286.459 28.8117 287.83 31.9646 287.83 36.2916L287.849 36.2821ZM277.647 37.0396C277.647 34.9661 277.202 33.1766 276.313 31.6617C275.283 29.929 273.893 29.0674 272.172 29.0674C270.451 29.0674 268.947 29.9006 267.699 31.5765C266.451 33.2523 265.827 35.1176 265.827 37.1911C265.827 39.4067 266.394 41.3192 267.52 42.9288C268.768 44.7089 270.356 45.5989 272.276 45.5989C274.082 45.5989 275.462 44.671 276.417 42.8247C277.231 41.234 277.647 39.312 277.647 37.0491V37.0396Z" fill="#2A4CDB"/>
<path d="M322.92 30.9989C322.92 36.4052 321.36 40.9121 318.249 44.51C315.138 48.1079 311.176 49.9069 306.354 49.9069C301.097 49.9069 296.983 48.0133 294.024 44.2165C291.319 40.789 289.967 36.4905 289.967 31.3208C289.967 26.1512 291.433 21.5402 294.345 17.7055C297.485 13.5963 301.437 11.5512 306.212 11.5512C310.987 11.5512 315.176 13.3691 318.278 17.0049C321.37 20.6407 322.93 25.3085 322.93 30.9989H322.92ZM312.292 30.4213C312.292 26.6814 311.933 23.5853 311.205 21.152C310.24 17.8665 308.708 16.2285 306.609 16.2285H306.212C304.406 16.3989 302.959 18.0748 301.872 21.2656C300.926 24.0492 300.463 27.1359 300.463 30.5539C300.463 34.2749 300.889 37.4467 301.73 40.0505C302.818 43.3644 304.416 45.0213 306.534 45.0213C308.075 45.0213 309.314 44.2165 310.221 42.5974C310.987 41.2435 311.545 39.3499 311.885 36.9165C312.15 34.985 312.283 32.8263 312.283 30.4308L312.292 30.4213Z" fill="#2A4CDB"/>
<path d="M327.96 50.8726C328.509 50.8726 329.048 50.9768 329.549 51.1946C330.031 51.4029 330.466 51.6964 330.844 52.0656C331.222 52.4444 331.515 52.8799 331.714 53.3628C331.922 53.8646 332.036 54.4043 332.036 54.9534C332.036 55.5026 331.932 56.0423 331.714 56.5441C331.506 57.027 331.213 57.4625 330.844 57.8412C330.466 58.22 330.031 58.5135 329.549 58.7123C329.048 58.9206 328.509 59.0342 327.96 59.0342C327.412 59.0342 326.873 58.9301 326.372 58.7123C325.889 58.504 325.454 58.2105 325.076 57.8412C324.698 57.4625 324.405 57.027 324.206 56.5441C323.998 56.0423 323.885 55.5026 323.885 54.9534C323.885 54.4043 323.989 53.8646 324.206 53.3628C324.414 52.8799 324.707 52.4444 325.076 52.0656C325.454 51.6869 325.889 51.3934 326.372 51.1946C326.873 50.9863 327.412 50.8726 327.96 50.8726ZM327.96 49.9069C325.18 49.9069 322.92 52.1698 322.92 54.9534C322.92 57.7371 325.18 60 327.96 60C330.74 60 333 57.7371 333 54.9534C333 52.1698 330.74 49.9069 327.96 49.9069Z" fill="#1C2644"/>
<path d="M327.062 57.3678H325.833V52.397H328.433C328.792 52.397 329.104 52.4728 329.379 52.6337C329.653 52.7947 329.861 53.003 329.993 53.2586C330.135 53.5237 330.201 53.8173 330.201 54.1297C330.201 54.4706 330.116 54.7736 329.955 55.0481C329.795 55.3227 329.558 55.5215 329.265 55.6541L330.192 57.3584H328.821L327.979 55.8624H327.062V57.3584V57.3678ZM327.062 53.5237V54.7451H328.319C328.509 54.7451 328.66 54.6883 328.783 54.5842C328.896 54.48 328.962 54.3285 328.962 54.1392C328.962 53.9498 328.906 53.7983 328.783 53.6847C328.66 53.5711 328.509 53.5237 328.319 53.5237H327.062Z" fill="#1C2644"/>
<path d="M33.7283 15.7267C37.2931 18.2736 39.0802 22.1651 39.0802 27.3915H26.2489C26.2489 23.2634 24.0741 21.1993 19.734 21.1993C15.3938 21.1993 13.219 23.7936 13.219 28.9822V32.902C13.219 38.0432 15.4789 40.6091 19.9987 40.6091C24.5185 40.6091 26.7784 38.4977 26.7784 34.2749H39.0708C39.0708 39.5487 37.2837 43.478 33.7189 46.0439C30.1541 48.6098 25.483 49.8974 19.7245 49.8974C13.5689 49.8974 8.73703 48.2878 5.23843 45.0781C1.73984 41.8684 -0.00946045 37.1343 -0.00946045 30.8947C-0.00946045 24.6552 1.73984 19.9306 5.23843 16.7114C8.73703 13.5017 13.5689 11.8921 19.7245 11.8921C25.483 11.8921 30.1446 13.1703 33.7189 15.7172L33.7283 15.7267Z" fill="#1C2644"/>
<path d="M43.3258 49.9069V0H56.5543V49.9069H43.3258Z" fill="#1C2644"/>
<path d="M94.0933 14.6947C97.4595 16.5504 99.1426 19.5708 99.1426 23.7463V37.9296C99.1426 38.706 99.3222 39.3499 99.6721 39.8611C100.022 40.363 100.561 40.6186 101.27 40.6186H103.662V48.534C103.53 48.6287 103.19 48.7707 102.632 48.979C102.074 49.1873 101.289 49.3956 100.268 49.5945C99.2466 49.8028 98.0741 49.9069 96.7408 49.9069C94.1689 49.9069 92.0508 49.4998 90.3961 48.7044C88.7319 47.8996 87.5972 46.7919 86.9731 45.3622C85.29 46.7351 83.4084 47.8428 81.3281 48.6666C79.2479 49.4903 76.8083 49.9069 74.0189 49.9069C65.7736 49.9069 61.6603 46.5078 61.6603 39.7191C61.6603 36.1875 62.5775 33.489 64.4214 31.6333C66.2558 29.7775 68.9034 28.4993 72.3641 27.8081C75.8249 27.1169 80.3353 26.7761 85.9236 26.7761V24.9866C85.9236 23.5664 85.4508 22.487 84.4958 21.7485C83.5407 21.0194 82.3115 20.6502 80.8081 20.6502C79.437 20.6502 78.2456 20.9058 77.2527 21.4076C76.2599 21.9094 75.7587 22.7142 75.7587 23.8125V24.0871H62.7288C62.6815 23.8599 62.6626 23.538 62.6626 23.1214C62.6626 19.6749 64.2417 16.9481 67.4188 14.9314C70.5865 12.9146 75.1157 11.9015 81.0066 11.9015C86.368 11.9015 90.7365 12.8294 94.1027 14.6947H94.0933ZM77.5742 34.5211C75.7776 35.3732 74.8794 36.5094 74.8794 37.9296C74.8794 40.2209 76.3828 41.3761 79.3992 41.3761C81.1295 41.3761 82.6425 40.8932 83.9568 39.9274C85.2617 38.9617 85.9141 37.7687 85.9141 36.3484V33.2523C82.1508 33.2523 79.3708 33.6784 77.5742 34.5305V34.5211Z" fill="#1C2644"/>
<path d="M162.212 15.5373C164.207 17.9517 165.2 21.3887 165.2 25.8482V49.9164H151.971V27.5335C151.971 25.9429 151.603 24.6647 150.874 23.6989C150.146 22.7426 149.116 22.2597 147.782 22.2597C146.232 22.2597 144.965 22.8184 143.991 23.9451C143.017 25.0718 142.525 26.4542 142.525 28.0922V49.9069H129.297V27.5241C129.297 25.9334 128.928 24.6552 128.2 23.6894C127.472 22.7332 126.441 22.2503 125.108 22.2503C123.557 22.2503 122.29 22.8089 121.316 23.9356C120.342 25.0623 119.85 26.4447 119.85 28.0827V49.8974H106.622V12.7537H117.458L118.319 18.3115C119.652 16.3421 121.411 14.7799 123.604 13.6342C125.798 12.4886 128.115 11.911 130.554 11.911C135.831 11.911 139.367 14.0508 141.192 18.3115C142.563 16.3421 144.331 14.7799 146.478 13.6342C148.624 12.4886 150.874 11.911 153.219 11.911C157.21 11.911 160.198 13.1229 162.193 15.5373H162.212Z" fill="#1C2644"/>
<path d="M202.219 14.6947C205.585 16.5504 207.268 19.5708 207.268 23.7463V37.9296C207.268 38.706 207.448 39.3499 207.798 39.8611C208.147 40.363 208.686 40.6186 209.396 40.6186H211.788V48.534C211.655 48.6287 211.315 48.7707 210.757 48.979C210.199 49.1873 209.415 49.3956 208.393 49.5945C207.372 49.8028 206.2 49.9069 204.866 49.9069C202.294 49.9069 200.176 49.4998 198.522 48.7044C196.867 47.9091 195.723 46.7919 195.099 45.3622C193.416 46.7351 191.534 47.8428 189.454 48.6666C187.373 49.4903 184.934 49.9069 182.144 49.9069C173.899 49.9069 169.786 46.5078 169.786 39.7191C169.786 36.1875 170.703 33.489 172.547 31.6333C174.381 29.7775 177.029 28.4993 180.49 27.8081C183.941 27.1169 188.461 26.7761 194.049 26.7761V24.9866C194.049 23.5664 193.576 22.487 192.621 21.7485C191.666 21.0194 190.437 20.6502 188.934 20.6502C187.562 20.6502 186.371 20.9058 185.378 21.4076C184.385 21.9094 183.884 22.7142 183.884 23.8125V24.0871H170.854C170.807 23.8599 170.788 23.538 170.788 23.1214C170.788 19.6749 172.367 16.9481 175.544 14.9314C178.712 12.9146 183.241 11.9015 189.142 11.9015C194.503 11.9015 198.871 12.8294 202.238 14.6947H202.219ZM185.7 34.5211C183.903 35.3732 183.005 36.5094 183.005 37.9296C183.005 40.2209 184.508 41.3761 187.525 41.3761C189.255 41.3761 190.768 40.8932 192.082 39.9274C193.387 38.9617 194.04 37.7687 194.04 36.3484V33.2523C190.276 33.2523 187.496 33.6784 185.7 34.5305V34.5211Z" fill="#1C2644"/>
</g>
<defs>
<clipPath id="clip0_530_970">
<rect width="333" height="60" fill="white"/>
</clipPath>
</defs>
</svg>
