<svg width="445" height="65" viewBox="0 0 445 65" fill="none" xmlns="http://www.w3.org/2000/svg">
<g clip-path="url(#clip0_25_116)">
<path d="M301.221 61.976C301.221 62.8243 300.931 63.5429 300.351 64.1217C299.772 64.7006 299.052 64.99 298.202 64.99C297.353 64.99 296.633 64.7006 296.054 64.1217C295.474 63.5429 295.184 62.8243 295.184 61.976V17.5549C295.184 16.8862 295.394 16.2774 295.824 15.7385C296.254 15.1996 296.803 14.8203 297.473 14.6008C298.143 14.4211 298.792 14.471 299.422 14.7305C300.051 15 300.541 15.4491 300.901 16.0778L318.101 46.6766L335.302 16.0778C335.661 15.4491 336.151 15 336.781 14.7305C337.41 14.4611 338.06 14.4211 338.73 14.6008C339.399 14.8303 339.939 15.2096 340.339 15.7385C340.739 16.2774 340.948 16.8762 340.948 17.5549V61.976C340.948 62.8243 340.659 63.5429 340.079 64.1217C339.499 64.7006 338.78 64.99 337.93 64.99C337.081 64.99 336.361 64.7006 335.781 64.1217C335.202 63.5429 334.912 62.8243 334.912 61.976V29.1616L320.73 54.3912C320.15 55.4191 319.271 55.9381 318.111 55.9381C316.952 55.9381 316.002 55.4191 315.423 54.3912L301.241 29.1616V61.976H301.221Z" fill="white"/>
<path d="M367.883 14.8004C371.381 14.7605 374.66 15.3792 377.728 16.6766C380.796 17.974 383.475 19.7505 385.753 22.016C388.042 24.2715 389.841 26.9261 391.16 29.9701C392.48 33.014 393.139 36.2774 393.139 39.7705C393.139 43.2635 392.48 46.5269 391.16 49.5709C389.841 52.6148 388.032 55.2495 385.753 57.485C383.475 59.7206 380.796 61.487 377.728 62.7844C374.66 64.0818 371.381 64.7106 367.883 64.6607H350.543C349.694 64.6607 348.974 64.3713 348.394 63.7924C347.815 63.2136 347.525 62.495 347.525 61.6467V17.8244C347.525 16.976 347.815 16.2575 348.394 15.6786C348.974 15.0998 349.694 14.8104 350.543 14.8104H367.883V14.8004ZM353.571 20.8383V58.6228H367.883C370.522 58.6627 373.01 58.1936 375.339 57.2156C377.668 56.2375 379.707 54.8902 381.456 53.1936C383.205 51.497 384.584 49.491 385.593 47.1856C386.603 44.8802 387.103 42.4152 387.103 39.7705C387.103 37.1257 386.603 34.6607 385.593 32.3553C384.584 30.0499 383.205 28.0339 381.456 26.3174C379.707 24.5908 377.668 23.2435 375.339 22.2555C373.01 21.2774 370.522 20.7984 367.883 20.8483H353.571V20.8383Z" fill="white"/>
<path d="M437.304 29.97C437.304 31.6267 437.034 33.2135 436.495 34.7305C435.955 36.2474 435.205 37.6347 434.246 38.8921C433.287 40.1496 432.137 41.2275 430.818 42.1456C429.499 43.0638 428.05 43.7424 426.48 44.1915L435.825 60.4291C436.225 61.1875 436.325 61.966 436.125 62.7444C435.925 63.5229 435.445 64.1416 434.676 64.5907C434.226 64.8602 433.736 64.9899 433.197 64.9899C432.657 64.9899 432.157 64.8602 431.687 64.5907C431.218 64.3213 430.848 63.942 430.578 63.453L419.754 44.8003H403.763V61.976C403.763 62.8243 403.473 63.5428 402.894 64.1217C402.314 64.7005 401.594 64.9899 400.745 64.9899C399.895 64.9899 399.176 64.7005 398.596 64.1217C398.016 63.5428 397.727 62.8243 397.727 61.976V17.8842C397.727 17.0359 398.016 16.3173 398.596 15.7384C399.176 15.1596 399.895 14.8702 400.745 14.8702H402.824C404.163 14.8702 405.882 14.8602 407.961 14.8402C410.04 14.8203 412.338 14.8103 414.847 14.8103H422.243C424.352 14.8103 426.32 15.1995 428.159 15.9879C429.998 16.7664 431.588 17.8542 432.927 19.2414C434.266 20.6287 435.335 22.2355 436.115 24.0718C436.895 25.9081 437.294 27.8742 437.294 29.98L437.304 29.97ZM431.258 29.9001C431.258 28.6526 431.018 27.475 430.548 26.3772C430.078 25.2794 429.439 24.3213 428.629 23.4929C427.82 22.6646 426.87 22.0159 425.771 21.5468C424.671 21.0778 423.492 20.8382 422.243 20.8382H403.763V38.7524H422.243C423.452 38.7524 424.601 38.5129 425.701 38.0438C426.8 37.5748 427.75 36.9361 428.559 36.1277C429.369 35.3193 430.018 34.3812 430.508 33.3133C430.998 32.2355 431.248 31.0977 431.248 29.8901L431.258 29.9001Z" fill="white"/>
<path d="M3.16822 26.3473C5.27704 22.5449 8.22538 19.6107 12.0033 17.5648C15.7811 15.5189 20.1087 14.491 24.976 14.491C31.2524 14.491 36.5295 16.2075 40.8071 19.6307C45.0847 23.0538 47.8431 27.8443 49.0724 33.992H30.7727C29.7133 30.7684 27.6645 29.1616 24.6162 29.1616C22.4474 29.1616 20.7284 30.0598 19.4691 31.8363C18.2098 33.6227 17.5801 36.2475 17.5801 39.7005C17.5801 43.1536 18.2098 45.7884 19.4691 47.6047C20.7284 49.4211 22.4474 50.3293 24.6162 50.3293C27.7244 50.3293 29.7733 48.7225 30.7727 45.499H49.0724C47.8431 51.5868 45.0847 56.3572 40.8071 59.8203C36.5295 63.2734 31.2524 64.9999 24.976 64.9999C20.1087 64.9999 15.7811 63.972 12.0033 61.9261C8.22538 59.8802 5.27704 56.9461 3.16822 53.1437C1.0594 49.3413 0 44.8602 0 39.7105C0 34.5608 1.0594 30.1696 3.16822 26.3572V26.3473Z" fill="#0061D6"/>
<path d="M71.5098 0V65H54.2695V0H71.5098Z" fill="#0061D6"/>
<path d="M79.3754 26.3473C81.2244 22.5449 83.743 19.6107 86.9412 17.5648C90.1394 15.5189 93.6974 14.491 97.6252 14.491C101.023 14.491 103.962 15.1596 106.42 16.5069C108.879 17.8542 110.788 19.6706 112.137 21.956V14.491H129.377V64.99H112.137V57.5249C110.788 59.8103 108.869 61.6267 106.37 62.974C103.882 64.3213 100.963 64.99 97.6152 64.99C93.6874 64.99 90.1194 63.962 86.9312 61.9161C83.733 59.8702 81.2144 56.9261 79.3654 53.0938C77.5165 49.2614 76.597 44.7904 76.597 39.7005C76.597 34.6107 77.5165 30.1596 79.3654 26.3473H79.3754ZM109.548 32.2355C107.819 30.4191 105.691 29.5109 103.172 29.5109C100.653 29.5109 98.4547 30.4091 96.7557 32.1856C95.0566 33.972 94.2071 36.477 94.2071 39.6906C94.2071 42.9041 95.0566 45.3592 96.7557 47.1956C98.4547 49.0419 100.594 49.96 103.172 49.96C105.751 49.96 107.819 49.0518 109.548 47.2355C111.278 45.4191 112.147 42.9041 112.147 39.6806C112.147 36.457 111.278 34.0319 109.548 32.2155V32.2355Z" fill="#0061D6"/>
<path d="M216.418 20.2894C219.966 24.0419 221.735 29.1616 221.735 35.6586V64.99H204.495V37.9341C204.495 35.2993 203.766 33.2534 202.296 31.7864C200.827 30.3193 198.838 29.5908 196.32 29.5908C193.801 29.5908 191.802 30.3193 190.343 31.7864C188.874 33.2534 188.144 35.2993 188.144 37.9341V64.99H170.904V37.9341C170.904 35.2993 170.184 33.2534 168.745 31.7864C167.306 30.3193 165.327 29.5908 162.809 29.5908C160.29 29.5908 158.201 30.3193 156.742 31.7864C155.273 33.2534 154.543 35.2993 154.543 37.9341V64.99H137.303V14.491H154.543V21.6067C156.072 19.5009 158.051 17.8143 160.48 16.5568C162.908 15.2993 165.717 14.6706 168.875 14.6706C172.513 14.6706 175.751 15.459 178.6 17.0459C181.438 18.6227 183.687 20.8483 185.326 23.7225C187.085 21.0279 189.404 18.8522 192.272 17.1756C195.14 15.5089 198.309 14.6706 201.767 14.6706C207.983 14.6706 212.86 16.5469 216.408 20.2894H216.418Z" fill="#0061D6"/>
<path d="M229.161 26.3473C231.01 22.5449 233.529 19.6107 236.727 17.5648C239.925 15.5189 243.483 14.491 247.411 14.491C250.809 14.491 253.747 15.1596 256.206 16.5069C258.665 17.8542 260.574 19.6706 261.923 21.956V14.491H279.163V64.99H261.923V57.5249C260.574 59.8103 258.655 61.6267 256.156 62.974C253.667 64.3213 250.749 64.99 247.401 64.99C243.473 64.99 239.905 63.962 236.717 61.9161C233.519 59.8702 231 56.9261 229.151 53.0938C227.302 49.2614 226.383 44.7904 226.383 39.7005C226.383 34.6107 227.302 30.1596 229.151 26.3473H229.161ZM259.334 32.2355C257.605 30.4191 255.476 29.5109 252.958 29.5109C250.439 29.5109 248.241 30.4091 246.541 32.1856C244.842 33.972 243.993 36.477 243.993 39.6906C243.993 42.9041 244.842 45.3592 246.541 47.1956C248.241 49.0419 250.379 49.96 252.958 49.96C255.536 49.96 257.605 49.0518 259.334 47.2355C261.063 45.4191 261.933 42.9041 261.933 39.6806C261.933 36.457 261.063 34.0319 259.334 32.2155V32.2355Z" fill="#0061D6"/>
<path d="M441.152 7.85428C441.572 7.85428 441.982 7.93412 442.361 8.0938C442.731 8.25348 443.061 8.47304 443.351 8.76246C443.641 9.05188 443.861 9.38122 444.021 9.75048C444.18 10.1297 444.26 10.5389 444.26 10.9581C444.26 11.3772 444.18 11.7864 444.021 12.1657C443.861 12.5349 443.641 12.8643 443.351 13.1537C443.061 13.4431 442.731 13.6627 442.361 13.8223C441.982 13.982 441.572 14.0619 441.152 14.0619C440.732 14.0619 440.323 13.982 439.943 13.8223C439.573 13.6627 439.243 13.4431 438.953 13.1537C438.664 12.8643 438.444 12.5349 438.284 12.1657C438.124 11.7864 438.044 11.3772 438.044 10.9581C438.044 10.5389 438.124 10.1297 438.284 9.75048C438.444 9.38122 438.664 9.05188 438.953 8.76246C439.243 8.47304 439.573 8.25348 439.943 8.0938C440.323 7.93412 440.732 7.85428 441.152 7.85428ZM441.152 7.12573C439.023 7.12573 437.304 8.8423 437.304 10.968C437.304 13.0938 439.023 14.8104 441.152 14.8104C443.281 14.8104 445 13.0938 445 10.968C445 8.8423 443.281 7.12573 441.152 7.12573Z" fill="white"/>
<path d="M440.463 12.8044H439.523V9.01196H441.512C441.782 9.01196 442.022 9.07184 442.232 9.1916C442.441 9.31136 442.601 9.47104 442.701 9.67065C442.811 9.87025 442.861 10.0898 442.861 10.3393C442.861 10.5988 442.801 10.8283 442.671 11.0379C442.541 11.2475 442.371 11.3972 442.142 11.497L442.851 12.7944H441.802L441.162 11.6567H440.463V12.7944V12.8044ZM440.463 9.88023V10.8084H441.422C441.562 10.8084 441.682 10.7685 441.772 10.6886C441.862 10.6088 441.902 10.499 441.902 10.3493C441.902 10.1996 441.852 10.0898 441.762 9.99999C441.672 9.92015 441.552 9.87025 441.412 9.87025H440.453L440.463 9.88023Z" fill="white"/>
<path d="M328.595 14.6508C329.405 15.0001 329.745 15.9482 329.345 16.7266L327.116 21.1079L319.53 34.6109C319.221 35.1598 318.751 35.4392 318.131 35.4392C317.512 35.4392 317.002 35.1598 316.692 34.6109L309.106 21.1079L306.788 16.7765C306.358 15.9781 306.718 14.9901 307.557 14.6508L307.687 14.6009C308.397 14.3115 309.206 14.6009 309.576 15.2695L318.131 30.4791L326.666 15.2995C327.046 14.6208 327.876 14.3414 328.595 14.6508Z" fill="#0061D6"/>
</g>
<defs>
<clipPath id="clip0_25_116">
<rect width="445" height="65" fill="white"/>
</clipPath>
</defs>
</svg>
